<svg width="33" height="27" viewBox="0 0 33 27" fill="none" xmlns="http://www.w3.org/2000/svg">
<path d="M27.369 0.833008C30.1496 0.833008 32.4218 3.00933 32.5752 5.75148L32.5834 6.04737V21.2894C32.5834 24.0699 30.4071 26.3421 27.6649 26.4955L27.369 26.5037H13.7296C12.5036 26.5037 11.3205 26.0719 10.3853 25.2901L10.1365 25.0682L2.12136 17.4472C0.0343468 15.4629 -0.0488589 12.1624 1.93551 10.0754L2.12136 9.88951L10.1365 2.26851C11.025 1.42372 12.1799 0.921491 13.3964 0.843653L13.7296 0.833008H27.369ZM27.369 3.23964H13.7296C13.0994 3.23964 12.4904 3.4515 11.9983 3.83691L11.7949 4.0126L3.77967 11.6336L3.6796 11.7337C2.67395 12.7913 2.65448 14.4278 3.59257 15.5075L3.77967 15.7031L11.7949 23.3241C12.2515 23.7584 12.8389 24.0245 13.4611 24.0842L13.7296 24.0971H27.369C28.8422 24.0971 30.0503 22.9626 30.1675 21.5196L30.1768 21.2894V6.04737C30.1768 4.57424 29.0423 3.36608 27.5993 3.24895L27.369 3.23964ZM15.6507 7.88773L15.7857 8.00424L19.7482 11.9661L23.7104 8.00424C24.1804 7.53431 24.9423 7.53431 25.4122 8.00424C25.8394 8.43144 25.8782 9.09995 25.5287 9.57102L25.4122 9.70598L21.4505 13.6684L25.4122 17.6308C25.8821 18.1007 25.8821 18.8626 25.4122 19.3325C24.985 19.7597 24.3165 19.7985 23.8454 19.449L23.7104 19.3325L19.7482 15.3707L15.7857 19.3325C15.3157 19.8024 14.5538 19.8024 14.0839 19.3325C13.6567 18.9053 13.6179 18.2368 13.9674 17.7657L14.0839 17.6308L18.0459 13.6684L14.0839 9.70598C13.614 9.23606 13.614 8.47416 14.0839 8.00424C14.5111 7.57703 15.1796 7.5382 15.6507 7.88773Z" fill="#7348FF"/>
</svg>
