<svg width="36" height="35" viewBox="0 0 36 35" fill="none" xmlns="http://www.w3.org/2000/svg">
<path fill-rule="evenodd" clip-rule="evenodd" d="M4.875 20.417C4.875 20.0302 5.02865 19.6593 5.30214 19.3858C5.57563 19.1123 5.94656 18.9587 6.33333 18.9587H23.8333C24.9937 18.9587 26.1065 18.4977 26.9269 17.6773C27.7474 16.8568 28.2083 15.744 28.2083 14.5837V8.75033C28.2083 8.36355 28.362 7.99262 28.6355 7.71913C28.909 7.44564 29.2799 7.29199 29.6667 7.29199C30.0534 7.29199 30.4244 7.44564 30.6979 7.71913C30.9714 7.99262 31.125 8.36355 31.125 8.75033V14.5837C31.125 16.5175 30.3568 18.3722 28.9893 19.7396C27.6219 21.1071 25.7672 21.8753 23.8333 21.8753H6.33333C5.94656 21.8753 5.57563 21.7217 5.30214 21.4482C5.02865 21.1747 4.875 20.8038 4.875 20.417Z" fill="#7348FF"/>
<path fill-rule="evenodd" clip-rule="evenodd" d="M5.30247 21.4474C5.02907 21.1739 4.87549 20.803 4.87549 20.4163C4.87549 20.0296 5.02907 19.6588 5.30247 19.3853L11.1358 13.5519C11.4108 13.2863 11.7792 13.1393 12.1616 13.1426C12.544 13.146 12.9097 13.2993 13.1801 13.5697C13.4505 13.8401 13.6039 14.2059 13.6072 14.5882C13.6105 14.9706 13.4635 15.339 13.1979 15.614L8.39559 20.4163L13.1979 25.2186C13.3372 25.3531 13.4483 25.5141 13.5247 25.692C13.6011 25.8699 13.6414 26.0613 13.643 26.2549C13.6447 26.4485 13.6078 26.6406 13.5345 26.8198C13.4612 26.999 13.3529 27.1618 13.216 27.2988C13.079 27.4357 12.9162 27.544 12.737 27.6173C12.5578 27.6906 12.3657 27.7275 12.1721 27.7259C11.9785 27.7242 11.7871 27.6839 11.6092 27.6075C11.4312 27.5311 11.2703 27.42 11.1358 27.2807L5.30247 21.4474Z" fill="#7348FF"/>
</svg>
