<svg width="35" height="35" viewBox="0 0 35 35" fill="none" xmlns="http://www.w3.org/2000/svg">
<g clip-path="url(#clip0_927_8730)">
<path d="M32.7504 10.373H5.83878V9.28682C5.83878 8.75783 6.26914 8.32747 6.79813 8.32747H27.6359C29.0113 8.32747 30.1303 7.20846 30.1303 5.83303C30.1303 4.45759 29.0113 3.33859 27.6359 3.33859H6.45274C5.92375 3.33859 5.49346 2.90822 5.49346 2.37923V0.767544C5.49346 0.34363 5.14976 0 4.72592 0C4.30208 0 3.95838 0.34363 3.95838 0.767544V2.37931C3.95838 3.75475 5.0773 4.87375 6.45274 4.87375H27.6359C28.1649 4.87375 28.5952 5.30411 28.5952 5.8331C28.5952 6.36209 28.1649 6.79246 27.6359 6.79246H6.79813C5.4227 6.79246 4.30369 7.91146 4.30369 9.2869V10.3731H2.24952C1.00909 10.373 0 11.3822 0 12.6226V24.2419C0 25.4824 1.00909 26.4915 2.24952 26.4915H32.7505C33.9909 26.4915 35.0001 25.4824 35.0001 24.2419V12.6226C35 11.3822 33.9909 10.373 32.7504 10.373ZM33.4649 24.2419C33.4649 24.6359 33.1444 24.9564 32.7504 24.9564H2.24952C1.85561 24.9564 1.53509 24.6359 1.53509 24.2419V12.6226C1.53509 12.2286 1.85561 11.9081 2.24952 11.9081H32.7505C33.1445 11.9081 33.465 12.2287 33.465 12.6226V24.2419H33.4649Z" fill="#7348FF"/>
<path d="M23.9854 12.752H3.14694C2.7231 12.752 2.37939 13.0956 2.37939 13.5195V23.3441C2.37939 23.768 2.7231 24.1116 3.14694 24.1116H23.9854C24.4092 24.1116 24.7529 23.768 24.7529 23.3441V13.5195C24.7529 13.0957 24.4093 12.752 23.9854 12.752ZM23.2178 16.0268H21.611V14.287H23.2178V16.0268ZM18.0421 16.0268V14.287H20.076V16.0268H18.0421ZM16.4304 19.3017V17.5619H18.4642V19.3017H16.4304ZM9.29258 19.3017V17.5619H11.3264V19.3017H9.29258ZM7.7575 17.5619V19.3017H5.95392V17.5619H7.7575ZM12.8615 17.5619H14.8953V19.3017H12.8615V17.5619ZM16.507 16.0268H14.4733V14.287H16.507V16.0268ZM12.9382 16.0268H10.9043V14.287H12.9382V16.0268ZM9.36926 16.0268H7.33542V14.287H9.36926V16.0268ZM4.41883 19.3017H3.91448V17.5619H4.41883V19.3017ZM9.36926 20.8368V22.5766H7.33542V20.8368H9.36926ZM10.9043 20.8368H16.507V22.5766H10.9043V20.8368ZM18.0421 20.8368H20.076V22.5766H18.0421V20.8368ZM19.9994 19.3017V17.5619H23.2179V19.3017H19.9994ZM5.80034 14.287V16.0268H3.91448V14.287H5.80034ZM3.91448 20.8368H5.80034V22.5766H3.91448V20.8368ZM21.6111 22.5765V20.8367H23.2179V22.5765H21.6111Z" fill="#7348FF"/>
<path d="M31.8529 12.752H26.7148C26.291 12.752 25.9473 13.0956 25.9473 13.5195V23.3441C25.9473 23.768 26.291 24.1116 26.7148 24.1116H31.8529C32.2767 24.1116 32.6204 23.768 32.6204 23.3441V13.5195C32.6204 13.0956 32.2767 12.752 31.8529 12.752ZM31.0854 16.0268H30.0151V14.287H31.0854V16.0268ZM30.0151 17.5619H31.0854V19.3017H30.0151V17.5619ZM28.48 19.3017H27.4824V17.5619H28.48V19.3017ZM28.48 14.287V16.0268H27.4824V14.287H28.48ZM27.4824 20.8368H28.48V22.5766H27.4824V20.8368ZM30.0151 22.5765V20.8367H31.0854V22.5765H30.0151Z" fill="#7348FF"/>
<path d="M14.216 28.254L17.8616 31.649L21.5073 28.254C21.8737 27.9127 22.4657 27.9127 22.8321 28.254C23.1985 28.5952 23.1985 29.1465 22.8321 29.4877L18.5193 33.504C18.1529 33.8452 17.561 33.8452 17.1945 33.504L12.8818 29.4877C12.5153 29.1465 12.5153 28.5952 12.8818 28.254C13.2482 27.9215 13.8496 27.9127 14.216 28.254Z" fill="#7348FF"/>
</g>
<defs>
<clipPath id="clip0_927_8730">
<rect width="35" height="35" fill="white"/>
</clipPath>
</defs>
</svg>
