<svg width="557" height="146" viewBox="0 0 557 146" fill="none" xmlns="http://www.w3.org/2000/svg">
<path d="M252.702 125.568C253.455 125.583 254.204 125.44 254.906 125.148C255.513 124.879 256.083 124.523 256.601 124.089C257.092 123.651 257.567 123.194 258.025 122.701C258.482 122.211 258.969 121.753 259.482 121.331C259.996 120.89 260.567 120.533 261.177 120.272C261.923 119.967 262.719 119.824 263.516 119.852H266.618C267.274 119.833 267.927 119.964 268.533 120.236C269.024 120.467 269.455 120.824 269.788 121.277C270.112 121.739 270.349 122.267 270.483 122.829C270.64 123.459 270.708 124.112 270.686 124.764C270.721 125.935 270.393 127.085 269.754 128.033C269.35 128.476 268.857 128.812 268.314 129.018C267.77 129.224 267.19 129.293 266.618 129.22H263.076V125.915H265.466H266.296C266.532 125.898 266.766 125.849 266.991 125.769C267.181 125.694 267.346 125.56 267.466 125.385C267.587 125.206 267.646 124.986 267.635 124.764C267.649 124.539 267.583 124.317 267.449 124.144C267.322 123.972 267.151 123.845 266.957 123.778C266.735 123.683 266.501 123.628 266.262 123.614H265.466H264.432C263.691 123.597 262.955 123.734 262.262 124.016C261.709 124.279 261.185 124.61 260.703 125.002C260.238 125.399 259.797 125.826 259.381 126.28C258.929 126.758 258.435 127.186 257.906 127.559C257.294 127.98 256.633 128.312 255.94 128.545C255.039 128.839 254.101 128.974 253.16 128.946H250.245C249.666 129.012 249.082 128.937 248.534 128.729C247.985 128.52 247.487 128.183 247.075 127.741C246.414 126.786 246.101 125.604 246.194 124.418C246.161 123.238 246.482 122.079 247.109 121.112C247.517 120.675 248.01 120.342 248.552 120.137C249.095 119.932 249.673 119.859 250.245 119.925H254.279V123.194H251.414C250.901 123.19 250.389 123.251 249.889 123.377C249.692 123.439 249.522 123.574 249.407 123.757C249.293 123.941 249.241 124.161 249.262 124.381C249.239 124.602 249.293 124.823 249.411 125.005C249.53 125.186 249.705 125.315 249.906 125.367C250.398 125.506 250.905 125.574 251.414 125.568H252.702Z" fill="white"/>
<path d="M249.196 25.3646C249.18 25.59 249.242 25.8138 249.37 25.9925C249.499 26.1713 249.684 26.2925 249.891 26.3325C250.386 26.4869 250.9 26.5607 251.416 26.5516H264.976C265.58 26.5619 266.183 26.4945 266.772 26.3508C266.985 26.3146 267.177 26.1926 267.309 26.0094C267.442 25.8262 267.504 25.5957 267.484 25.3646C267.504 25.1336 267.442 24.903 267.309 24.7199C267.177 24.5367 266.985 24.4146 266.772 24.3785C266.18 24.2581 265.578 24.203 264.976 24.2141H251.416C251.14 24.1951 250.862 24.1951 250.586 24.2141C250.349 24.2274 250.115 24.2766 249.891 24.3602C249.699 24.4339 249.526 24.5524 249.382 24.7072C249.255 24.8847 249.189 25.1041 249.196 25.3281V25.3646ZM265.806 20.7809C266.643 20.7597 267.477 20.8767 268.281 21.1279C268.823 21.3021 269.317 21.6154 269.722 22.041C270.062 22.4351 270.296 22.921 270.4 23.4471C270.519 24.0473 270.575 24.6597 270.569 25.2733C270.573 25.8868 270.516 26.4989 270.4 27.0995C270.304 27.6447 270.069 28.1505 269.722 28.5604C269.327 29.0042 268.83 29.3258 268.281 29.4918C267.474 29.7195 266.641 29.824 265.806 29.8022H250.552C249.939 29.8625 249.321 29.7849 248.737 29.5742C248.154 29.3636 247.617 29.0246 247.162 28.5787C246.777 28.1311 246.479 27.6045 246.287 27.0303C246.095 26.4562 246.012 25.8462 246.043 25.2368C246.008 24.6298 246.089 24.0215 246.282 23.4498C246.474 22.878 246.774 22.355 247.162 21.9132C247.624 21.481 248.163 21.1533 248.745 20.9494C249.327 20.7456 249.942 20.6696 250.552 20.7261L265.806 20.7809Z" fill="white"/>
<path d="M270.366 15.5957H250.145V15.1392L270.366 13.7513L270.332 9.42325L250.145 7.96231V7.50577H270.366V4.36475L246.501 4.71172V10.2998L266.417 11.3773V11.6512L246.501 12.4547V18.3898L270.366 18.7367V15.5957Z" fill="white"/>
<path d="M252.705 90.761C253.458 90.776 254.206 90.6334 254.908 90.3409C255.515 90.0719 256.085 89.7156 256.603 89.2818C257.095 88.8435 257.569 88.3869 258.027 87.8939C258.485 87.4035 258.972 86.946 259.485 86.5242C259.998 86.0829 260.569 85.7259 261.18 85.4651C261.926 85.1597 262.721 85.017 263.519 85.045H266.621C267.269 85.0171 267.915 85.1353 268.519 85.392C269.009 85.6327 269.439 85.9958 269.773 86.4512C270.101 86.9118 270.338 87.4402 270.468 88.0034C270.625 88.6342 270.694 89.2866 270.672 89.9392C270.706 91.1101 270.378 92.2601 269.739 93.208C269.335 93.6502 268.842 93.9871 268.299 94.1928C267.756 94.3985 267.176 94.4677 266.604 94.3951H263.061V91.1079H265.451H266.282C266.52 91.0941 266.755 91.0386 266.976 90.9436C267.167 90.8808 267.334 90.7526 267.451 90.5783C267.572 90.3985 267.632 90.1792 267.621 89.9574C267.635 89.7323 267.568 89.5099 267.434 89.3365C267.304 89.165 267.135 89.0328 266.943 88.953C266.718 88.873 266.484 88.8239 266.248 88.807H265.451H264.417C263.676 88.7812 262.938 88.9179 262.248 89.2087C261.694 89.4716 261.171 89.8025 260.688 90.1948C260.224 90.5918 259.782 91.0187 259.366 91.4732C258.915 91.9506 258.421 92.3788 257.891 92.7515C257.28 93.1735 256.619 93.5051 255.925 93.7376C255.025 94.0318 254.086 94.1674 253.146 94.1394H250.23C249.65 94.2063 249.064 94.131 248.515 93.9191C247.966 93.7072 247.469 93.3642 247.061 92.9158C246.397 91.9698 246.083 90.7919 246.179 89.6105C246.146 88.4312 246.467 87.272 247.095 86.3051C247.502 85.8684 247.995 85.5352 248.538 85.3298C249.08 85.1245 249.659 85.0521 250.23 85.1181H254.264V88.46H251.4C250.886 88.4471 250.373 88.5085 249.874 88.6426C249.676 88.702 249.504 88.8359 249.389 89.02C249.274 89.2042 249.223 89.4265 249.247 89.647C249.225 89.8676 249.278 90.0894 249.397 90.2709C249.515 90.4524 249.691 90.5812 249.891 90.6331C250.384 90.772 250.891 90.8395 251.4 90.834L252.705 90.761Z" fill="white"/>
<path d="M249.196 78.9089C249.178 79.1361 249.237 79.3626 249.361 79.547C249.486 79.7314 249.668 79.8614 249.874 79.9133C250.372 80.052 250.885 80.1196 251.399 80.1141H264.959C265.586 80.1293 266.212 80.0618 266.823 79.9133C267.036 79.8771 267.228 79.7551 267.36 79.5719C267.493 79.3887 267.555 79.1582 267.535 78.9271C267.559 78.6952 267.498 78.4623 267.365 78.2781C267.232 78.0938 267.038 77.9729 266.823 77.941C266.232 77.8134 265.63 77.7522 265.027 77.7584H251.467H250.636C250.399 77.7771 250.165 77.8324 249.941 77.9227C249.747 77.9894 249.572 78.1089 249.433 78.2697C249.302 78.4449 249.236 78.666 249.247 78.8906L249.196 78.9089ZM265.806 74.4347C266.642 74.4087 267.476 74.5195 268.281 74.7634C268.826 74.9387 269.322 75.259 269.722 75.6948C270.067 76.0844 270.303 76.5722 270.4 77.1009C270.52 77.7008 270.577 78.3135 270.569 78.9271C270.571 79.5405 270.514 80.1524 270.4 80.7533C270.3 81.297 270.065 81.8017 269.722 82.2142C269.326 82.652 268.828 82.9673 268.281 83.1273C267.475 83.364 266.641 83.4687 265.806 83.4378H250.552C249.94 83.4961 249.324 83.4193 248.741 83.212C248.158 83.0048 247.621 82.6714 247.162 82.2325C246.777 81.7843 246.48 81.2576 246.288 80.6836C246.096 80.1096 246.013 79.4999 246.043 78.8906C246.008 78.2836 246.089 77.6753 246.282 77.1036C246.474 76.5318 246.774 76.0088 247.162 75.567C247.624 75.1348 248.163 74.8071 248.745 74.6032C249.327 74.3994 249.942 74.3234 250.552 74.38L265.806 74.4347Z" fill="white"/>
<path d="M263.517 66.5451V63.2032H265.805C266.605 63.1795 267.404 63.2778 268.178 63.4954C268.719 63.6562 269.218 63.95 269.636 64.3537C269.99 64.7301 270.242 65.2038 270.365 65.7234C270.504 66.3204 270.572 66.934 270.568 67.5495C270.576 68.1994 270.519 68.8484 270.399 69.4853C270.299 70.0346 270.065 70.5453 269.721 70.9645C269.321 71.4003 268.825 71.7206 268.28 71.8958C267.487 72.1389 266.664 72.2497 265.839 72.2245H250.585C249.974 72.2842 249.359 72.2098 248.777 72.0058C248.194 71.8017 247.656 71.4723 247.195 71.0375C246.514 70.0811 246.146 68.9098 246.146 67.7048C246.146 66.4998 246.514 65.3284 247.195 64.372C247.652 63.9303 248.189 63.5952 248.773 63.3878C249.356 63.1804 249.973 63.1051 250.585 63.1667H254.602V66.5086H251.398C250.884 66.5008 250.37 66.5684 249.873 66.7095C249.676 66.7652 249.504 66.8955 249.389 67.0766C249.273 67.2577 249.223 67.4775 249.246 67.6956C249.22 67.9169 249.271 68.1407 249.39 68.3231C249.509 68.5056 249.687 68.6335 249.89 68.6818C250.38 68.8298 250.889 68.8975 251.398 68.8826H265.043C265.647 68.8929 266.25 68.8255 266.839 68.6818C267.053 68.6336 267.243 68.5033 267.374 68.3151C267.505 68.1269 267.568 67.8937 267.551 67.6591C267.571 67.4301 267.508 67.2019 267.375 67.0217C267.243 66.8414 267.051 66.7231 266.839 66.6912C266.249 66.5546 265.646 66.4934 265.043 66.5086L263.517 66.5451Z" fill="white"/>
<path d="M263.518 35.1913V31.8494H265.806C266.606 31.8256 267.405 31.924 268.179 32.1415C268.72 32.3023 269.219 32.5961 269.637 32.9998C269.991 33.3763 270.243 33.8499 270.366 34.3695C270.505 34.9665 270.573 35.5801 270.569 36.1957C270.577 36.8456 270.52 37.4945 270.4 38.1314C270.3 38.6807 270.066 39.1914 269.722 39.6106C269.322 40.0464 268.826 40.3667 268.281 40.5419C267.489 40.792 266.665 40.909 265.84 40.8889H250.585C249.974 40.9505 249.357 40.8752 248.774 40.6678C248.19 40.4604 247.653 40.1254 247.196 39.6836C246.444 38.7652 246.06 37.5639 246.128 36.3417C246.063 35.1255 246.447 33.931 247.196 33.0181C247.653 32.5764 248.19 32.2413 248.774 32.0339C249.357 31.8265 249.974 31.7512 250.585 31.8128H254.603V35.1547H251.399C250.884 35.1469 250.371 35.2145 249.874 35.3556C249.676 35.4113 249.505 35.5416 249.389 35.7227C249.274 35.9038 249.223 36.1236 249.246 36.3417C249.224 36.5647 249.276 36.789 249.394 36.9735C249.513 37.158 249.689 37.2903 249.891 37.3461C250.384 37.4782 250.891 37.5396 251.399 37.5288H265.044C265.641 37.5496 266.238 37.4944 266.823 37.3644C267.037 37.3163 267.227 37.1859 267.358 36.9977C267.489 36.8095 267.552 36.5763 267.535 36.3417C267.555 36.1128 267.492 35.8845 267.359 35.7043C267.226 35.5241 267.035 35.4058 266.823 35.3739C266.232 35.2463 265.63 35.1851 265.027 35.1913H263.518Z" fill="white"/>
<path d="M113.716 38.9884C113.617 43.4612 114.421 47.9038 116.072 52.009C117.62 55.644 119.653 59.0154 122.106 62.0165C124.548 64.9977 127.145 67.8268 129.886 70.4899C132.651 73.1764 135.26 76.0427 137.7 79.0729C140.166 82.1674 142.194 85.6382 143.717 89.3726C145.394 93.7583 146.202 98.4731 146.09 103.215V121.586C146.19 125.479 145.447 129.343 143.92 132.872C142.563 135.868 140.529 138.449 138.005 140.378C135.345 142.34 132.367 143.746 129.225 144.523C125.629 145.403 121.943 145.777 118.258 145.637C110.349 145.491 104.168 143.665 99.7154 140.158C95.2238 136.652 92.9355 130.461 92.9355 121.568V100.585H111.733V114.72C111.733 116.546 111.733 118.117 111.936 119.669C112.047 121.065 112.344 122.436 112.818 123.741C113.231 124.89 113.958 125.877 114.902 126.572C115.961 127.286 117.197 127.637 118.445 127.576C119.712 127.634 120.963 127.243 122.004 126.462C122.931 125.713 123.647 124.702 124.072 123.54C124.561 122.215 124.858 120.817 124.954 119.395C125.089 117.843 125.157 116.272 125.157 114.647V108.675C125.28 104.286 124.504 99.9218 122.886 95.892C121.414 92.5304 119.521 89.4028 117.258 86.5968C115 83.8256 112.595 81.1976 110.055 78.726C107.385 76.107 104.971 73.2004 102.851 70.0516C100.482 66.4818 98.5878 62.5724 97.2238 58.4372C95.5834 53.0928 94.8149 47.4826 94.9526 41.8555V24.6895C94.9526 15.8143 97.2577 9.52615 101.868 5.8251C106.478 2.12406 112.727 0.389192 120.614 0.620508C128.524 0.742253 134.739 2.56843 139.259 6.09903C143.779 9.62963 146.039 15.8204 146.039 24.6712V48.4845H127.123V31.5194C127.185 28.4826 126.819 25.4533 126.038 22.5346C125.326 20.0327 123.445 18.7909 120.428 18.7909C117.411 18.7909 115.513 20.0693 114.801 22.6259C114.032 25.5161 113.667 28.5134 113.716 31.5194V38.9884Z" fill="white"/>
<path d="M246.501 139.866L266.993 140.523V141.163L246.501 141.82V145.655L270.4 143.81V143.354V141.053V140.633V138.295V137.875L246.501 136.031V139.866Z" fill="white"/>
<path d="M246.501 134.278H270.4V131.137V130.79H246.501V134.278Z" fill="white"/>
<path d="M246.501 118.262H270.4V115.14V114.793H246.501V118.262Z" fill="white"/>
<path d="M249.603 110.776H270.366V107.288H249.637L249.976 104.877H246.501V113.223H249.976L249.603 110.776Z" fill="white"/>
<path d="M263.245 95.9478H260.448V103.271H263.245V95.9478Z" fill="white"/>
<path d="M246.501 57.7982V61.2862H270.366V57.7982H264.23V55.6616H270.366V52.1736H246.501V55.6616H260.756V57.7982H246.501Z" fill="white"/>
<path d="M246.501 50.0908H270.4V46.9498V46.6028H246.501V50.0908Z" fill="white"/>
<path d="M270.366 42.1292H267.095V45.0145H270.366V42.1292Z" fill="white"/>
<path d="M29.0518 125.459H25.4415L21.7125 4.07288H0L10.458 145.656H13.0343H26.0517H28.4246H41.6623H44.0183L54.4932 4.07288H32.7807L29.0518 125.459Z" fill="white"/>
<path d="M64.3604 4.07288V145.656H82.1236H84.1067V4.07288H82.1236H64.3604Z" fill="white"/>
<path d="M154.973 4.07275V145.656H172.736H174.719V4.07275H172.736H154.973Z" fill="white"/>
<path d="M183.6 24.8722L197.414 22.6443V145.655H217.16V22.8634L230.771 24.8722V4.27295H183.6V24.8722Z" fill="white"/>
<path d="M332.23 6.0625C327.71 2.5806 321.496 0.754425 313.586 0.583982C305.676 0.413539 299.416 2.14232 294.805 5.77032C290.195 9.42266 287.896 15.7108 287.907 24.6347V41.819C287.761 47.4347 288.529 53.0345 290.178 58.3641C291.539 62.5067 293.433 66.4226 295.806 69.9968C297.916 73.1542 300.33 76.0619 303.009 78.6712C305.545 81.1476 307.95 83.7753 310.213 86.542C312.475 89.348 314.368 92.4756 315.84 95.8372C317.459 99.867 318.234 104.231 318.111 108.62V114.665C318.111 116.29 318.111 117.879 317.908 119.413C317.803 120.834 317.506 122.23 317.027 123.559C316.606 124.728 315.882 125.742 314.942 126.48C313.908 127.264 312.662 127.656 311.399 127.594C310.146 127.657 308.904 127.307 307.84 126.59C306.915 125.879 306.207 124.887 305.806 123.741C305.32 122.414 305.017 121.017 304.907 119.596C304.789 118.043 304.721 116.4 304.721 114.647V100.585H285.924V121.586C285.924 130.486 288.184 136.683 292.704 140.177C297.224 143.671 303.439 145.497 311.348 145.655C315.034 145.808 318.723 145.427 322.315 144.523C325.458 143.759 328.437 142.359 331.095 140.396C333.56 138.436 335.54 135.852 336.858 132.872C338.397 129.334 339.141 125.455 339.027 121.55V103.215C339.143 98.4746 338.341 93.7602 336.671 89.3726C335.142 85.6376 333.109 82.1668 330.637 79.0729C328.199 76.0473 325.595 73.1811 322.84 70.4899C320.099 67.8222 317.496 64.9934 315.043 62.0165C312.595 59.0149 310.568 55.6433 309.026 52.009C307.369 47.9052 306.56 43.4626 306.653 38.9884V31.5194C306.613 28.5139 306.979 25.5182 307.738 22.6259C308.467 20.0693 310.348 18.7909 313.365 18.7909C316.382 18.7909 318.264 20.0327 318.993 22.4433C319.772 25.3684 320.138 28.4036 320.077 31.4463V48.4115H339.027V24.6347C339.027 15.7595 336.762 9.56876 332.23 6.0625Z" fill="white"/>
<path d="M392.538 6.57423C388.018 2.19141 381.764 0 373.775 0C365.786 0 359.469 2.19141 354.825 6.57423C350.215 10.957 347.927 17.5313 347.927 26.4613V116.546C347.76 121.483 348.333 126.416 349.622 131.156C350.582 134.491 352.398 137.467 354.859 139.739C357.285 141.831 360.157 143.237 363.215 143.829C366.765 144.533 370.369 144.87 373.978 144.834C377.453 144.871 380.922 144.535 384.335 143.829C387.274 143.231 390.026 141.843 392.335 139.794C394.754 137.481 396.561 134.52 397.572 131.211C398.956 126.489 399.592 121.55 399.454 116.601L399.25 26.516C399.25 17.5678 397.013 10.957 392.538 6.57423ZM380.385 111.89C380.452 115.493 380.117 119.092 379.385 122.609C379.109 123.924 378.393 125.083 377.374 125.865C376.354 126.647 375.103 126.996 373.86 126.846C372.603 127.02 371.331 126.682 370.293 125.898C369.255 125.115 368.526 123.942 368.249 122.609C367.444 119.104 367.074 115.5 367.148 111.89V31.3189C367.112 28.2281 367.512 25.1495 368.334 22.188C368.648 20.9103 369.381 19.7981 370.396 19.0564C371.412 18.3147 372.642 17.9935 373.86 18.1522C375.072 18.0959 376.266 18.482 377.25 19.2479C378.137 20.0249 378.821 21.0385 379.233 22.188C379.711 23.5103 380.008 24.9006 380.114 26.3152C380.25 27.8674 380.317 29.5292 380.317 31.2824L380.385 111.89Z" fill="white"/>
<path d="M436.946 0.200684C428.929 0.200684 422.641 2.33731 418.098 6.55577C413.556 10.7742 411.318 17.385 411.318 26.2602V116.747C411.176 121.643 411.812 126.528 413.2 131.192C414.216 134.522 416.056 137.49 418.522 139.775C420.987 141.867 423.902 143.255 426.997 143.811C430.581 144.511 434.219 144.848 437.862 144.815C441.413 144.862 444.958 144.458 448.421 143.61C451.325 142.911 454.011 141.413 456.218 139.264C458.504 136.866 460.174 133.871 461.066 130.571C462.29 126.016 462.862 121.287 462.761 116.546V103.014H443.658V111.908C443.731 115.498 443.401 119.085 442.675 122.591C442.403 123.909 441.688 125.073 440.669 125.858C439.649 126.643 438.396 126.995 437.15 126.846C435.88 126.992 434.605 126.643 433.554 125.862C432.503 125.081 431.746 123.921 431.421 122.591C430.563 119.107 430.17 115.51 430.251 111.908V31.0995C430.203 28.0996 430.569 25.1085 431.336 22.2243C432.048 19.6677 433.929 18.3894 436.946 18.3894C439.963 18.3894 441.862 19.6312 442.574 22.0417C443.352 24.9609 443.718 27.9899 443.658 31.0265V50.0187H462.625V26.2602C462.625 17.385 460.365 10.8168 455.845 6.55577C451.269 2.33731 444.981 0.200684 436.946 0.200684Z" fill="white"/>
<path d="M505.254 86.6508H493.22V2.22681H473.474V143.609H493.22V107.25H505.254V143.609H525.001V2.22681H505.254V86.6508Z" fill="white"/>
<path d="M554.611 2.22681H536.848V143.81H554.611H556.594V2.22681H554.611Z" fill="white"/>
</svg>
