<svg width="154" height="30" viewBox="0 0 154 30" fill="none" xmlns="http://www.w3.org/2000/svg">
<path d="M69.9185 25.8569C70.1268 25.86 70.3339 25.8307 70.5282 25.7704C70.6961 25.715 70.8538 25.6417 70.9972 25.5523C71.1332 25.4621 71.2645 25.3681 71.3911 25.2665C71.5177 25.1656 71.6524 25.0713 71.7944 24.9845C71.9365 24.8936 72.0945 24.8201 72.2634 24.7664C72.4699 24.7035 72.6898 24.6741 72.9106 24.6799H73.7688C73.9504 24.676 74.131 24.7029 74.2987 24.7589C74.4346 24.8065 74.5537 24.8801 74.6458 24.9732C74.7356 25.0685 74.801 25.1772 74.838 25.2929C74.8815 25.4227 74.9004 25.5571 74.8943 25.6915C74.9039 25.9326 74.8132 26.1694 74.6364 26.3646C74.5246 26.4556 74.3883 26.525 74.2379 26.5674C74.0875 26.6097 73.9271 26.624 73.7688 26.609H72.7886V25.9284H73.4499H73.6797C73.7451 25.9249 73.8097 25.9148 73.872 25.8983C73.9244 25.8828 73.9701 25.8554 74.0033 25.8193C74.0367 25.7823 74.0533 25.7371 74.0502 25.6915C74.0541 25.6451 74.0357 25.5993 73.9986 25.5636C73.9635 25.5284 73.9162 25.5022 73.8626 25.4884C73.8012 25.4688 73.7363 25.4574 73.6703 25.4546H73.4499H73.1638C72.959 25.4511 72.7552 25.4792 72.5635 25.5373C72.4104 25.5914 72.2657 25.6596 72.1321 25.7404C72.0036 25.8221 71.8815 25.91 71.7663 26.0036C71.6414 26.1019 71.5048 26.1901 71.3583 26.2668C71.1891 26.3537 71.0061 26.422 70.8143 26.4699C70.5651 26.5305 70.3054 26.5584 70.0452 26.5526H69.2385C69.0786 26.566 68.9168 26.5507 68.7651 26.5078C68.6135 26.4649 68.4756 26.3954 68.3616 26.3044C68.1788 26.1078 68.092 25.8644 68.1177 25.62C68.1085 25.3772 68.1973 25.1385 68.3709 24.9394C68.4838 24.8495 68.6202 24.7808 68.7703 24.7386C68.9204 24.6963 69.0804 24.6814 69.2385 24.695H70.3547V25.3681H69.5621C69.4201 25.3673 69.2784 25.3799 69.1401 25.4057C69.0856 25.4186 69.0385 25.4463 69.0069 25.484C68.9752 25.5218 68.9609 25.5672 68.9665 25.6125C68.9604 25.6579 68.9751 25.7036 69.0079 25.741C69.0407 25.7783 69.0893 25.8049 69.1447 25.8156C69.281 25.8442 69.4213 25.8581 69.5621 25.8569H69.9185Z" fill="white"/>
<path d="M68.9487 5.22305C68.9443 5.26946 68.9615 5.31553 68.997 5.35235C69.0325 5.38916 69.0838 5.41411 69.141 5.42235C69.2781 5.45414 69.4203 5.46935 69.563 5.46748H73.3148C73.4819 5.4696 73.6488 5.45571 73.8119 5.42611C73.8707 5.41867 73.9239 5.39354 73.9605 5.35582C73.997 5.3181 74.0143 5.27063 74.0088 5.22305C74.0143 5.17547 73.997 5.128 73.9605 5.09028C73.9239 5.05256 73.8707 5.02743 73.8119 5.01998C73.648 4.99518 73.4815 4.98384 73.3148 4.98614H69.563C69.4865 4.98223 69.4097 4.98223 69.3332 4.98614C69.2677 4.98888 69.203 4.99901 69.141 5.01622C69.088 5.0314 69.04 5.0558 69.0003 5.08767C68.9651 5.12422 68.9469 5.16941 68.9487 5.21553V5.22305ZM73.5446 4.27918C73.776 4.2748 74.0069 4.29889 74.2293 4.35062C74.3792 4.3865 74.516 4.45102 74.6279 4.53865C74.7219 4.6198 74.7867 4.71987 74.8155 4.8282C74.8484 4.95178 74.8641 5.07789 74.8624 5.20425C74.8633 5.33057 74.8476 5.45662 74.8155 5.58029C74.7889 5.69257 74.724 5.79672 74.6279 5.88113C74.5188 5.9725 74.3811 6.03873 74.2293 6.07291C74.0059 6.11981 73.7754 6.14133 73.5446 6.13684H69.3238C69.1543 6.14925 68.9833 6.13326 68.8219 6.08989C68.6604 6.04652 68.5119 5.97671 68.3859 5.88489C68.2794 5.79271 68.1971 5.68427 68.1439 5.56605C68.0907 5.44782 68.0678 5.32222 68.0764 5.19672C68.0667 5.07173 68.0892 4.94647 68.1425 4.82874C68.1957 4.71101 68.2786 4.60331 68.3859 4.51232C68.5139 4.42334 68.6629 4.35586 68.824 4.31388C68.9851 4.27189 69.1551 4.25626 69.3238 4.26789L73.5446 4.27918Z" fill="white"/>
<path d="M74.8062 3.2116H69.2114V3.11759L74.8062 2.83179L74.7968 1.94057L69.2114 1.63973V1.54572H74.8062V0.898926L68.2031 0.970374V2.12107L73.7135 2.34294V2.39934L68.2031 2.5648V3.78695L74.8062 3.8584V3.2116Z" fill="white"/>
<path d="M69.9196 18.6896C70.1279 18.6927 70.335 18.6633 70.5293 18.6031C70.6972 18.5477 70.8549 18.4743 70.9983 18.385C71.1343 18.2947 71.2656 18.2007 71.3922 18.0992C71.5188 17.9982 71.6535 17.904 71.7955 17.8171C71.9375 17.7263 72.0956 17.6528 72.2645 17.599C72.4709 17.5362 72.6909 17.5068 72.9116 17.5125H73.7698C73.9492 17.5068 74.1281 17.5311 74.2951 17.584C74.4307 17.6335 74.5497 17.7083 74.6421 17.8021C74.7328 17.897 74.7983 18.0058 74.8344 18.1217C74.8778 18.2516 74.8968 18.386 74.8907 18.5203C74.9002 18.7615 74.8095 18.9983 74.6327 19.1935C74.5209 19.2845 74.3846 19.3539 74.2342 19.3962C74.0839 19.4386 73.9234 19.4528 73.7651 19.4379H72.785V18.761H73.4463H73.676C73.742 18.7582 73.8069 18.7467 73.8683 18.7272C73.9211 18.7142 73.9673 18.6878 73.9996 18.652C74.0331 18.6149 74.0497 18.5698 74.0465 18.5241C74.0505 18.4777 74.032 18.432 73.9949 18.3962C73.9589 18.3609 73.9121 18.3337 73.8589 18.3173C73.7967 18.3008 73.7321 18.2907 73.6667 18.2872H73.4463H73.1602C72.9552 18.2819 72.751 18.31 72.5599 18.3699C72.4068 18.4241 72.262 18.4922 72.1285 18.573C72 18.6547 71.8779 18.7426 71.7627 18.8362C71.6378 18.9345 71.5012 19.0227 71.3547 19.0994C71.1855 19.1863 71.0025 19.2546 70.8107 19.3025C70.5615 19.3631 70.3018 19.391 70.0416 19.3852H69.2349C69.0745 19.399 68.9123 19.3835 68.7604 19.3399C68.6086 19.2962 68.471 19.2256 68.358 19.1333C68.1743 18.9385 68.0874 18.6959 68.1141 18.4527C68.1049 18.2098 68.1937 17.9711 68.3674 17.772C68.4802 17.6821 68.6166 17.6135 68.7667 17.5712C68.9168 17.5289 69.0768 17.514 69.2349 17.5276H70.3511V18.2157H69.5585C69.4164 18.2131 69.2744 18.2257 69.1365 18.2534C69.0815 18.2656 69.0339 18.2932 69.0021 18.3311C68.9703 18.369 68.9564 18.4148 68.9629 18.4602C68.9568 18.5056 68.9715 18.5513 69.0043 18.5887C69.0371 18.626 69.0857 18.6525 69.1411 18.6632C69.2774 18.6918 69.4177 18.7057 69.5585 18.7046L69.9196 18.6896Z" fill="white"/>
<path d="M68.9487 16.2488C68.9438 16.2956 68.96 16.3423 68.9945 16.3802C69.0289 16.4182 69.0792 16.445 69.1363 16.4556C69.2741 16.4842 69.416 16.4981 69.5583 16.497H73.3101C73.4835 16.5001 73.6567 16.4862 73.8259 16.4556C73.8848 16.4482 73.9379 16.4231 73.9745 16.3854C74.0111 16.3476 74.0284 16.3002 74.0229 16.2526C74.0296 16.2048 74.0127 16.1569 73.9759 16.1189C73.9391 16.081 73.8853 16.0561 73.8259 16.0495C73.6623 16.0232 73.4957 16.0106 73.3288 16.0119H69.5771H69.3473C69.2815 16.0158 69.2168 16.0272 69.155 16.0458C69.1012 16.0595 69.0528 16.0841 69.0143 16.1172C68.9781 16.1533 68.9597 16.1988 68.9627 16.2451L68.9487 16.2488ZM73.5446 15.3275C73.7757 15.3221 74.0066 15.345 74.2292 15.3952C74.3801 15.4313 74.5172 15.4972 74.6279 15.587C74.7235 15.6672 74.7886 15.7677 74.8155 15.8765C74.8487 16.0001 74.8644 16.1262 74.8624 16.2526C74.8627 16.3789 74.847 16.5049 74.8155 16.6286C74.7878 16.7406 74.723 16.8445 74.6279 16.9295C74.5184 17.0196 74.3807 17.0845 74.2292 17.1175C74.0063 17.1662 73.7755 17.1878 73.5446 17.1814H69.3238C69.1547 17.1934 68.9842 17.1776 68.8229 17.1349C68.6617 17.0922 68.5129 17.0236 68.3859 16.9332C68.2796 16.8409 68.1974 16.7325 68.1443 16.6143C68.0911 16.4961 68.068 16.3705 68.0764 16.2451C68.0667 16.1201 68.0892 15.9948 68.1425 15.8771C68.1957 15.7593 68.2786 15.6516 68.3859 15.5607C68.5139 15.4717 68.6629 15.4042 68.824 15.3622C68.9851 15.3202 69.1551 15.3046 69.3238 15.3162L73.5446 15.3275Z" fill="white"/>
<path d="M72.9119 13.7029V13.0147H73.545C73.7663 13.0098 73.9874 13.0301 74.2016 13.0749C74.3513 13.108 74.4893 13.1685 74.6049 13.2517C74.7029 13.3292 74.7727 13.4267 74.8066 13.5337C74.845 13.6566 74.8639 13.783 74.8629 13.9097C74.865 14.0436 74.8492 14.1772 74.816 14.3083C74.7884 14.4215 74.7236 14.5266 74.6284 14.6129C74.5177 14.7027 74.3806 14.7686 74.2297 14.8047C74.0103 14.8548 73.7825 14.8776 73.5544 14.8724H69.3337C69.1649 14.8847 68.9947 14.8694 68.8334 14.8274C68.6722 14.7853 68.5233 14.7175 68.3957 14.628C68.2075 14.431 68.1055 14.1898 68.1055 13.9417C68.1055 13.6936 68.2075 13.4524 68.3957 13.2554C68.5223 13.1645 68.671 13.0955 68.8324 13.0527C68.9938 13.01 69.1645 12.9945 69.3337 13.0072H70.4451V13.6954H69.5588C69.4164 13.6938 69.2744 13.7077 69.1367 13.7368C69.0822 13.7482 69.0346 13.7751 69.0028 13.8123C68.9709 13.8496 68.9568 13.8949 68.9632 13.9398C68.956 13.9854 68.9703 14.0315 69.0032 14.069C69.0362 14.1066 69.0855 14.1329 69.1414 14.1429C69.2772 14.1734 69.4179 14.1873 69.5588 14.1842H73.334C73.5012 14.1864 73.668 14.1725 73.8311 14.1429C73.8903 14.133 73.9429 14.1061 73.9791 14.0674C74.0154 14.0286 74.0328 13.9806 74.0281 13.9323C74.0335 13.8851 74.016 13.8381 73.9793 13.801C73.9427 13.7639 73.8896 13.7396 73.8311 13.733C73.6678 13.7049 73.501 13.6922 73.334 13.6954L72.9119 13.7029Z" fill="white"/>
<path d="M72.9114 7.24636V6.5582H73.5445C73.7658 6.5533 73.9868 6.57356 74.2011 6.61837C74.3507 6.65147 74.4888 6.71197 74.6044 6.79511C74.7024 6.87262 74.7721 6.97015 74.806 7.07714C74.8445 7.20009 74.8634 7.32644 74.8623 7.45319C74.8644 7.58702 74.8487 7.72064 74.8154 7.8518C74.7878 7.96492 74.7231 8.07008 74.6278 8.15639C74.5171 8.24613 74.38 8.31208 74.2292 8.34818C74.01 8.39967 73.7822 8.42377 73.5539 8.41962H69.3331C69.1639 8.43231 68.9932 8.41681 68.8318 8.3741C68.6704 8.33139 68.5218 8.26239 68.3952 8.17143C68.1873 7.9823 68.0811 7.73494 68.0998 7.48327C68.0819 7.23283 68.188 6.98685 68.3952 6.79887C68.5218 6.70791 68.6704 6.63891 68.8318 6.5962C68.9932 6.55349 69.1639 6.538 69.3331 6.55068H70.4446V7.23884H69.5582C69.4159 7.23723 69.2739 7.25115 69.1362 7.28021C69.0816 7.29167 69.0341 7.31851 69.0022 7.35581C68.9704 7.3931 68.9563 7.43835 68.9627 7.48327C68.9563 7.52917 68.9709 7.57537 69.0036 7.61336C69.0363 7.65136 69.0851 7.6786 69.1409 7.6901C69.2773 7.71729 69.4177 7.72993 69.5582 7.7277H73.3335C73.4987 7.73199 73.664 7.72063 73.8259 7.69386C73.885 7.68395 73.9376 7.65711 73.9739 7.61835C74.0101 7.57959 74.0275 7.53157 74.0228 7.48327C74.0282 7.43612 74.0108 7.38912 73.9741 7.35201C73.9374 7.3149 73.8844 7.29053 73.8259 7.28397C73.6622 7.2577 73.4957 7.24509 73.3288 7.24636H72.9114Z" fill="white"/>
<path d="M31.4644 8.02843C31.437 8.94947 31.6595 9.86428 32.1163 10.7096C32.5445 11.4581 33.107 12.1524 33.7858 12.7704C34.4614 13.3842 35.1801 13.9668 35.9384 14.5152C36.7033 15.0684 37.4253 15.6586 38.1003 16.2826C38.7827 16.9198 39.3438 17.6345 39.7651 18.4035C40.2291 19.3066 40.4528 20.2775 40.4217 21.2539V25.0369C40.4494 25.8384 40.2438 26.6341 39.8214 27.3609C39.4459 27.9778 38.8831 28.5093 38.1847 28.9064C37.4489 29.3106 36.6248 29.6001 35.7555 29.76C34.7606 29.9412 33.7407 30.0183 32.7212 29.9894C30.5327 29.9593 28.8225 29.5833 27.5907 28.8613C26.348 28.1393 25.7148 26.8645 25.7148 25.0332V20.7124H30.9157V23.623C30.9157 23.999 30.9157 24.3224 30.972 24.6421C31.0027 24.9295 31.0848 25.212 31.2158 25.4807C31.3303 25.7172 31.5314 25.9204 31.7927 26.0635C32.0856 26.2107 32.4275 26.2828 32.7728 26.2703C33.1236 26.2824 33.4695 26.2018 33.7577 26.041C34.0142 25.8868 34.2123 25.6785 34.3298 25.4393C34.465 25.1664 34.5472 24.8785 34.5737 24.5857C34.6112 24.266 34.6299 23.9426 34.6299 23.608V22.3783C34.6639 21.4745 34.4494 20.5758 34.0015 19.746C33.5943 19.0538 33.0705 18.4097 32.4445 17.8319C31.8197 17.2613 31.1542 16.7201 30.4514 16.2112C29.7128 15.6719 29.0449 15.0733 28.4583 14.4249C27.8028 13.6898 27.2787 12.8848 26.9013 12.0333C26.4475 10.9328 26.2348 9.77755 26.2729 8.61882V5.084C26.2729 3.25643 26.9107 1.96158 28.1863 1.19946C29.4619 0.437348 31.1908 0.0801057 33.3731 0.127738C35.5616 0.152808 37.2812 0.528852 38.5317 1.25587C39.7823 1.98289 40.4076 3.25768 40.4076 5.08024V9.98386H35.1739V6.49041C35.191 5.86508 35.0898 5.24128 34.8738 4.64027C34.6768 4.12509 34.1563 3.86938 33.3215 3.86938C32.4867 3.86938 31.9615 4.13261 31.7645 4.65907C31.5519 5.25423 31.4508 5.87141 31.4644 6.49041V8.02843Z" fill="white"/>
<path d="M68.2031 28.8009L73.873 28.9363V29.0679L68.2031 29.2033V29.993L74.8156 29.6132V29.5192V29.0454V28.9589V28.4775V28.391L68.2031 28.0112V28.8009Z" fill="white"/>
<path d="M68.2031 27.6504H74.8156V27.0036V26.9321H68.2031V27.6504Z" fill="white"/>
<path d="M68.2031 24.3527H74.8156V23.7096V23.6382H68.2031V24.3527Z" fill="white"/>
<path d="M69.0613 22.8108H74.8062V22.0926H69.0707L69.1645 21.5962H68.2031V23.3147H69.1645L69.0613 22.8108Z" fill="white"/>
<path d="M72.8363 19.7573H72.0625V21.2653H72.8363V19.7573Z" fill="white"/>
<path d="M68.2031 11.9019V12.6201H74.8062V11.9019H73.1085V11.4619H74.8062V10.7437H68.2031V11.4619H72.1471V11.9019H68.2031Z" fill="white"/>
<path d="M68.2031 10.3144H74.8156V9.66764V9.59619H68.2031V10.3144Z" fill="white"/>
<path d="M74.8055 8.67529H73.9004V9.26944H74.8055V8.67529Z" fill="white"/>
<path d="M8.03812 25.8345H7.03922L6.00749 0.838867H0L2.89354 29.9936H3.60637H7.20805H7.8646H11.5272H12.1791L15.0773 0.838867H9.06985L8.03812 25.8345Z" fill="white"/>
<path d="M17.8086 0.838867V29.9936H22.7234H23.2721V0.838867H22.7234H17.8086Z" fill="white"/>
<path d="M42.8789 0.838867V29.9936H47.7937H48.3424V0.838867H47.7937H42.8789Z" fill="white"/>
<path d="M50.7988 5.12166L54.6209 4.66289V29.9932H60.0844V4.70801L63.8502 5.12166V0.879883H50.7988V5.12166Z" fill="white"/>
<path d="M91.9216 1.24817C90.671 0.53118 88.9515 0.155136 86.7629 0.120038C84.5744 0.0849406 82.8424 0.440929 81.5668 1.188C80.2912 1.94009 79.6549 3.23494 79.6581 5.07254V8.61112C79.6176 9.7675 79.8303 10.9206 80.2865 12.0181C80.6629 12.8711 81.187 13.6775 81.8435 14.4135C82.4273 15.0637 83.0954 15.6624 83.8366 16.1997C84.5382 16.7096 85.2036 17.2507 85.8297 17.8205C86.4556 18.3983 86.9795 19.0423 87.3867 19.7345C87.8346 20.5643 88.0491 21.463 88.0151 22.3668V23.6115C88.0151 23.9462 88.0151 24.2734 87.9588 24.5893C87.9299 24.8818 87.8477 25.1694 87.7149 25.4429C87.5986 25.6836 87.3984 25.8925 87.1381 26.0445C86.8521 26.2059 86.5073 26.2865 86.158 26.2739C85.8111 26.2869 85.4675 26.2148 85.1731 26.0671C84.9171 25.9207 84.7212 25.7165 84.6104 25.4805C84.476 25.2072 84.3923 24.9196 84.3618 24.6269C84.329 24.3072 84.3102 23.9688 84.3102 23.6078V20.7122H79.1094V25.0367C79.1094 26.8693 79.7347 28.1454 80.9853 28.8649C82.2358 29.5844 83.9554 29.9604 86.1439 29.993C87.1638 30.0245 88.1843 29.9461 89.1781 29.7599C90.0477 29.6026 90.8721 29.3142 91.6074 28.91C92.2896 28.5065 92.8372 27.9743 93.2019 27.3607C93.6279 26.6322 93.8336 25.8334 93.8022 25.0292V21.2537C93.8342 20.2776 93.6122 19.3068 93.1503 18.4033C92.7272 17.6342 92.1646 16.9195 91.4808 16.2824C90.8062 15.6594 90.0858 15.0692 89.3235 14.515C88.5649 13.9657 87.8447 13.3832 87.1663 12.7702C86.4889 12.1521 85.928 11.4578 85.5014 10.7094C85.043 9.86439 84.819 8.94956 84.8449 8.02825V6.49023C84.8338 5.87135 84.9349 5.25447 85.145 4.6589C85.3467 4.13243 85.8672 3.8692 86.702 3.8692C87.5367 3.8692 88.0573 4.12491 88.259 4.62129C88.4747 5.22364 88.5759 5.84864 88.5591 6.47519V9.96864H93.8022V5.07254C93.8022 3.24497 93.1753 1.97018 91.9216 1.24817Z" fill="white"/>
<path d="M108.609 1.35376C107.358 0.451253 105.628 0 103.417 0C101.207 0 99.4593 0.451253 98.1743 1.35376C96.8987 2.25627 96.2656 3.61003 96.2656 5.44888V23.9992C96.2196 25.0156 96.3779 26.0314 96.7346 27.0075C97.0003 27.6944 97.5026 28.307 98.1837 28.7749C98.8548 29.2058 99.6495 29.4954 100.496 29.6173C101.478 29.7622 102.475 29.8315 103.474 29.8241C104.435 29.8317 105.395 29.7624 106.339 29.6173C107.152 29.4941 107.914 29.2083 108.553 28.7862C109.222 28.31 109.722 27.7002 110.002 27.0188C110.385 26.0465 110.56 25.0295 110.522 24.0104L110.466 5.46017C110.466 3.61755 109.847 2.25627 108.609 1.35376ZM105.246 23.0402C105.265 23.7823 105.172 24.5234 104.97 25.2476C104.893 25.5184 104.695 25.7571 104.413 25.9181C104.131 26.079 103.785 26.1509 103.441 26.12C103.093 26.1559 102.741 26.0863 102.454 25.9249C102.167 25.7635 101.965 25.522 101.889 25.2476C101.666 24.5258 101.563 23.7836 101.584 23.0402V6.44916C101.574 5.81272 101.685 5.17877 101.912 4.56894C101.999 4.30584 102.202 4.0768 102.483 3.92407C102.763 3.77134 103.104 3.70522 103.441 3.73788C103.776 3.72629 104.107 3.80579 104.379 3.96351C104.624 4.12351 104.814 4.33223 104.927 4.56894C105.06 4.84123 105.142 5.12752 105.171 5.4188C105.209 5.73844 105.228 6.08064 105.228 6.44164L105.246 23.0402Z" fill="white"/>
<path d="M120.897 0.0415039C118.679 0.0415039 116.939 0.481476 115.682 1.35014C114.425 2.2188 113.806 3.58008 113.806 5.40766V24.0407C113.767 25.0487 113.943 26.0548 114.327 27.0152C114.608 27.7008 115.117 28.3119 115.799 28.7826C116.481 29.2134 117.288 29.4992 118.144 29.6136C119.136 29.7579 120.142 29.8271 121.15 29.8205C122.133 29.8302 123.114 29.7469 124.072 29.5723C124.875 29.4282 125.618 29.1199 126.229 28.6773C126.862 28.1835 127.324 27.5668 127.57 26.8873C127.909 25.9494 128.067 24.9755 128.039 23.9993V21.2128H122.754V23.0441C122.774 23.7835 122.683 24.5222 122.482 25.244C122.407 25.5155 122.209 25.7551 121.927 25.9168C121.645 26.0785 121.298 26.1509 120.953 26.1202C120.602 26.1502 120.249 26.0783 119.958 25.9176C119.668 25.7568 119.458 25.5179 119.368 25.244C119.131 24.5267 119.022 23.786 119.045 23.0441V6.40418C119.031 5.78643 119.132 5.17051 119.345 4.5766C119.542 4.05014 120.062 3.78691 120.897 3.78691C121.732 3.78691 122.257 4.04262 122.454 4.539C122.669 5.14011 122.771 5.76383 122.754 6.38913V10.3H128.002V5.40766C128.002 3.58008 127.377 2.22758 126.126 1.35014C124.86 0.481476 123.12 0.0415039 120.897 0.0415039Z" fill="white"/>
<path d="M139.795 17.843H136.465V0.458496H131.002V29.5719H136.465V22.0848H139.795V29.5719H145.259V0.458496H139.795V17.843Z" fill="white"/>
<path d="M153.45 0.458496H148.535V29.6132H153.45H153.999V0.458496H153.45Z" fill="white"/>
</svg>
