<svg width="18" height="20" viewBox="0 0 18 20" fill="none" xmlns="http://www.w3.org/2000/svg">
<path d="M17.064 7.4835C17.5916 7.96938 17.5916 8.75134 17.064 9.23722C16.8003 9.48015 16.4582 9.60162 16.112 9.60162C15.7658 9.60162 15.4238 9.48015 15.16 9.23722L10.4906 4.93264V18.0589C10.4906 18.7422 9.88887 19.3002 9.14292 19.3002C8.39697 19.3002 7.79526 18.746 7.79526 18.0589V4.93264L3.12585 9.23722C2.59832 9.72309 1.74934 9.72309 1.22182 9.23722C0.694291 8.75134 0.694291 7.96938 1.22182 7.4835L8.1909 1.0646C8.4423 0.829257 8.78437 0.700195 9.14292 0.700195C9.50147 0.700195 9.84354 0.829257 10.0949 1.0646L17.064 7.4835Z" fill="#F3F1F6"/>
</svg>
